<svg width="124" height="109" viewBox="0 0 124 109" fill="none" xmlns="http://www.w3.org/2000/svg">
<path d="M30.3484 1.31373L30.3489 1.31279C30.7248 0.652264 31.4305 0.25 32.1842 0.25H91.8158C92.5695 0.25 93.2752 0.652264 93.6511 1.3128L93.6516 1.31373L123.467 53.1846C123.467 53.1848 123.467 53.1849 123.467 53.1851C123.844 53.8481 123.844 54.6521 123.467 55.315C123.467 55.3152 123.467 55.3154 123.467 55.3156L93.6516 107.186L93.6511 107.187C93.2752 107.848 92.5695 108.25 91.8158 108.25H32.1842C31.4305 108.25 30.7248 107.848 30.3489 107.187L30.3484 107.186L0.53307 55.3156C0.533016 55.3155 0.532962 55.3154 0.532908 55.3153C0.155697 54.6522 0.155697 53.848 0.532908 53.1849C0.532962 53.1848 0.533016 53.1847 0.53307 53.1846L30.3484 1.31373Z" fill="#08090A" stroke="#9C9C9C" stroke-width="0.5"/>
</svg>
