<svg width="24" height="24" viewBox="0 0 24 24" fill="none" xmlns="http://www.w3.org/2000/svg">
<path d="M0.489796 0.25H6.36735C6.49978 0.25 6.60714 0.35736 6.60714 0.489796V6.36735C6.60714 6.49978 6.49978 6.60714 6.36735 6.60714H0.489796C0.35736 6.60714 0.25 6.49978 0.25 6.36735V0.489796C0.25 0.35736 0.35736 0.25 0.489796 0.25ZM9.06122 0.25H14.9388C15.0712 0.25 15.1786 0.35736 15.1786 0.489796V6.36735C15.1786 6.49978 15.0712 6.60714 14.9388 6.60714H9.06122C8.92879 6.60714 8.82143 6.49978 8.82143 6.36735V0.489796C8.82143 0.35736 8.92879 0.25 9.06122 0.25ZM17.6327 0.25H23.5102C23.6426 0.25 23.75 0.357359 23.75 0.489796V6.36735C23.75 6.49978 23.6426 6.60714 23.5102 6.60714H17.6327C17.5002 6.60714 17.3929 6.49978 17.3929 6.36735V0.489796C17.3929 0.35736 17.5002 0.25 17.6327 0.25ZM0.489796 8.82143H6.36735C6.49978 8.82143 6.60714 8.92879 6.60714 9.06122V14.9388C6.60714 15.0712 6.49978 15.1786 6.36735 15.1786H0.489796C0.35736 15.1786 0.25 15.0712 0.25 14.9388V9.06122C0.25 8.92879 0.35736 8.82143 0.489796 8.82143ZM9.06122 8.82143H14.9388C15.0712 8.82143 15.1786 8.92879 15.1786 9.06122V14.9388C15.1786 15.0712 15.0712 15.1786 14.9388 15.1786H9.06122C8.92879 15.1786 8.82143 15.0712 8.82143 14.9388V9.06122C8.82143 8.92879 8.92879 8.82143 9.06122 8.82143ZM17.6327 8.82143H23.5102C23.6426 8.82143 23.75 8.92879 23.75 9.06122V14.9388C23.75 15.0712 23.6426 15.1786 23.5102 15.1786H17.6327C17.5002 15.1786 17.3929 15.0712 17.3929 14.9388V9.06122C17.3929 8.92879 17.5002 8.82143 17.6327 8.82143ZM0.489796 17.3929H6.36735C6.49978 17.3929 6.60714 17.5002 6.60714 17.6327V23.5102C6.60714 23.6426 6.49978 23.75 6.36735 23.75H0.489796C0.357359 23.75 0.25 23.6426 0.25 23.5102V17.6327C0.25 17.5002 0.35736 17.3929 0.489796 17.3929ZM9.06122 17.3929H14.9388C15.0712 17.3929 15.1786 17.5002 15.1786 17.6327V23.5102C15.1786 23.6426 15.0712 23.75 14.9388 23.75H9.06122C8.92879 23.75 8.82143 23.6426 8.82143 23.5102V17.6327C8.82143 17.5002 8.92879 17.3929 9.06122 17.3929ZM17.6327 17.3929H23.5102C23.6426 17.3929 23.75 17.5002 23.75 17.6327V23.5102C23.75 23.6426 23.6426 23.75 23.5102 23.75H17.6327C17.5002 23.75 17.3929 23.6426 17.3929 23.5102V17.6327C17.3929 17.5002 17.5002 17.3929 17.6327 17.3929Z" stroke="#56EAED" stroke-width="0.5"/>
</svg>
