<svg width="24" height="24" viewBox="0 0 24 24" fill="none" xmlns="http://www.w3.org/2000/svg">
<path d="M20.9184 13.1295L20.8972 13.2751L21.0142 13.3644L23.6199 15.351C23.6863 15.4052 23.7298 15.4794 23.7445 15.5597C23.7593 15.6409 23.7442 15.7248 23.7009 15.797L23.7005 15.7978L21.2343 19.9441C21.234 19.9445 21.2338 19.9449 21.2336 19.9452C21.1896 20.0167 21.1203 20.0723 21.0366 20.1007C20.9529 20.1291 20.8616 20.1281 20.7788 20.0979L17.7139 18.8988L17.5842 18.8481L17.4728 18.9316C16.8511 19.3979 16.1705 19.785 15.4476 20.0833L15.3159 20.1377L15.2956 20.2787L14.8377 23.4449C14.8219 23.5268 14.7777 23.6024 14.7106 23.6584C14.6428 23.715 14.5561 23.7477 14.465 23.75H9.53498C9.44517 23.7479 9.35951 23.7163 9.2917 23.6617C9.22554 23.6083 9.1804 23.5363 9.16166 23.4573L8.70444 20.2959L8.68393 20.1541L8.55123 20.1001C7.82719 19.8055 7.14691 19.4183 6.52835 18.9487L6.41668 18.8639L6.28611 18.915L3.22125 20.1141C3.13843 20.1443 3.04705 20.1454 2.96341 20.117C2.87969 20.0887 2.81039 20.0332 2.76635 19.9618C2.76611 19.9614 2.76588 19.961 2.76564 19.9606L0.299541 15.815L0.299109 15.8142C0.255839 15.7421 0.240707 15.6581 0.255533 15.5769C0.270214 15.4966 0.313688 15.4225 0.380068 15.3682L2.98578 13.3816L3.10232 13.2927L3.08172 13.1476C3.02773 12.7672 2.99921 12.3838 2.99635 11.9998C2.99858 11.6219 3.02706 11.2446 3.08159 10.8705L3.10282 10.7249L2.98578 10.6356L0.380051 8.64896C0.31368 8.59475 0.270213 8.52062 0.255533 8.44028C0.240707 8.35914 0.255839 8.27515 0.299111 8.20297L0.299547 8.20223L2.76642 4.05479C2.81041 3.98334 2.8797 3.92773 2.96344 3.8993C3.04707 3.87091 3.13845 3.87193 3.22129 3.90211L6.28611 5.10116L6.41578 5.1519L6.52718 5.06836C7.14895 4.6021 7.82953 4.21503 8.5524 3.91665L8.68405 3.86231L8.70444 3.72135L9.16234 0.555156C9.17805 0.473197 9.2223 0.397588 9.28944 0.341577C9.3572 0.285048 9.44389 0.252264 9.53502 0.25H14.4651C14.5549 0.252159 14.6405 0.283682 14.7083 0.338344C14.7745 0.391688 14.8196 0.463725 14.8383 0.542639L15.2956 3.70413L15.3161 3.84603L15.4489 3.89998C16.1739 4.19436 16.855 4.58161 17.4744 5.05136L17.5861 5.13608L17.7166 5.08496L20.7788 3.8859C20.8616 3.8557 20.953 3.85462 21.0366 3.88295C21.1203 3.91132 21.1896 3.96684 21.2337 4.0382C21.2339 4.03859 21.2341 4.03897 21.2344 4.03936L23.7005 8.18554L23.7009 8.18627C23.7442 8.25846 23.7593 8.34245 23.7445 8.42359C23.7298 8.50393 23.6863 8.57806 23.6199 8.63227L21.0142 10.6189L20.8977 10.7078L20.9183 10.8529C20.9723 11.2331 21.0008 11.6164 21.0037 12.0003C21.0014 12.3781 20.9729 12.7554 20.9184 13.1295ZM16.5361 12L16.5361 11.9992C16.5325 10.8251 16.0519 9.70135 15.2014 8.87314C14.3511 8.04515 13.2004 7.57958 12.0007 7.57609L12 7.82609V7.57609C11.1043 7.57609 10.2282 7.83471 9.48243 8.31997C8.7366 8.80528 8.15427 9.49576 7.81012 10.3049C7.46594 11.114 7.37577 12.0048 7.55133 12.8643C7.72687 13.7238 8.16 14.5123 8.79486 15.1305C9.42965 15.7487 10.2376 16.1689 11.1163 16.3391C11.9949 16.5093 12.9057 16.4221 13.7337 16.088C14.5618 15.754 15.2707 15.1879 15.7699 14.4603C16.2692 13.7327 16.5361 12.8765 16.5361 12Z" stroke="#56EAED" stroke-width="0.5"/>
</svg>
