<svg width="11" height="8" viewBox="0 0 11 8" fill="none" xmlns="http://www.w3.org/2000/svg">
<path d="M5.64508 5.25C6.38037 5.25 6.97644 4.69036 6.97644 4C6.97644 3.30964 6.38037 2.75 5.64508 2.75C4.90979 2.75 4.31372 3.30964 4.31372 4C4.31372 4.69036 4.90979 5.25 5.64508 5.25Z" fill="#9C9C9C"/>
<path d="M10.5304 3.66016C9.97995 2.86094 9.2658 2.18203 8.46532 1.69668C7.57975 1.15918 6.60203 0.875 5.63805 0.875C4.75352 0.875 3.88377 1.1123 3.05292 1.58027C2.20563 2.05742 1.43802 2.75449 0.771297 3.65195C0.69603 3.75338 0.654578 3.87353 0.652207 3.99712C0.649837 4.12072 0.686655 4.24219 0.757983 4.34609C1.30738 5.15332 2.01446 5.8332 2.80245 6.31191C3.68968 6.85156 4.64452 7.125 5.63805 7.125C6.60973 7.125 7.58953 6.84316 8.47135 6.31016C9.27141 5.82637 9.98411 5.14492 10.5325 4.33906C10.6013 4.23757 10.6377 4.11966 10.6374 3.99932C10.637 3.87899 10.5999 3.76127 10.5304 3.66016V3.66016ZM5.64512 5.875C5.25014 5.875 4.86403 5.76503 4.53562 5.55901C4.20721 5.35298 3.95124 5.06014 3.80009 4.71753C3.64894 4.37492 3.60939 3.99792 3.68645 3.63421C3.76351 3.27049 3.95371 2.9364 4.233 2.67417C4.51229 2.41195 4.86813 2.23338 5.25551 2.16103C5.6429 2.08868 6.04444 2.12581 6.40935 2.26773C6.77426 2.40964 7.08616 2.64996 7.3056 2.95831C7.52504 3.26665 7.64216 3.62916 7.64216 4C7.64155 4.49711 7.43096 4.97369 7.05657 5.3252C6.68218 5.6767 6.17458 5.87443 5.64512 5.875V5.875Z" fill="#9C9C9C"/>
</svg>
