<svg width="26" height="9" viewBox="0 0 26 9" fill="none" xmlns="http://www.w3.org/2000/svg">
<path d="M0.953125 0.210938V1.08984H1.83203V8.12109H0.953125V9H3.58984V4.60547H4.46875V5.48438H5.34766V9H7.10547V5.48438H6.22656V3.72656H7.10547V1.08984H6.22656V0.210938H0.953125ZM3.58984 1.08984H5.34766V3.72656H3.58984V1.08984ZM9.98438 1.96875H10.8633V1.08984H11.7422V0.210938H15.2578V1.08984H16.1367V2.84766H15.2578V1.96875H14.3789V1.08984H12.6211V1.96875H11.7422V7.24219H12.6211V8.12109H15.2578V9H16.1367V4.60547H12.6211V5.48438H14.3789V9H11.7422V8.12109H10.8633V7.24219H9.98438V1.96875ZM19.0156 0.210938V1.08984H19.8945V8.12109H19.0156V9H24.2891V8.12109H25.168V4.60547H24.2891V3.72656H25.168V1.08984H24.2891V0.210938H19.0156ZM21.6523 1.08984H23.4102V3.72656H21.6523V1.08984ZM21.6523 4.60547H23.4102V8.12109H21.6523V4.60547Z" fill="url(#paint0_linear)"/>
<defs>
<linearGradient id="paint0_linear" x1="-0.5" y1="5.5" x2="26.494" y2="5.0988" gradientUnits="userSpaceOnUse">
<stop stop-color="#FF5C49"/>
<stop offset="0.0408078" stop-color="#FF9349"/>
<stop offset="0.0720578" stop-color="#FFDA65"/>
<stop offset="0.134558" stop-color="#D4FF55"/>
<stop offset="0.238724" stop-color="#97FC54"/>
<stop offset="0.327266" stop-color="#4EC87E"/>
<stop offset="0.415808" stop-color="#4EC8BA"/>
<stop offset="0.493933" stop-color="#4EA3C8"/>
<stop offset="0.582475" stop-color="#4E6CC8"/>
<stop offset="0.681433" stop-color="#5C4EC8"/>
<stop offset="0.744792" stop-color="#9D4EC8"/>
<stop offset="0.84375" stop-color="#ED56EB"/>
<stop offset="0.947917" stop-color="#ED56B8"/>
<stop offset="1" stop-color="#ED5671"/>
</linearGradient>
</defs>
</svg>
