<svg version="1.1" id="Capa_1" xmlns="http://www.w3.org/2000/svg" xmlns:xlink="http://www.w3.org/1999/xlink" x="0px" y="0px"
	 viewBox="0 0 512 512" style="enable-background: new 0 0 512 512;" xml:space="preserve">
<g>
	<g>
		<path d="M440.689,213.472c3.837-8.825,6.023-18.558,6.023-28.793c-0.006-40.125-32.527-72.641-72.658-72.647
			c-23.253,0-43.922,10.965-57.206,27.947c-25.588-24.604-60.37-39.793-98.678-39.793c-73.498,0.011-133.972,55.63-141.651,127.103
			C33.004,235.097,0.018,273.049,0,318.778c0.006,51.39,41.645,93.029,93.029,93.035l317.221-0.253
			c28.033,0,53.518-11.206,71.921-29.443c18.416-18.219,29.835-43.578,29.829-71.651
			C511.982,264.891,482.011,226.428,440.689,213.472z M410.245,394.301l-317.221,0.253c-20.946-0.006-39.833-8.468-53.576-22.195
			c-13.72-13.738-22.182-32.624-22.189-53.581c-0.018-39.263,29.903-71.56,68.148-75.373l7.329-0.731l0.426-7.352
			c3.808-65.726,58.317-117.886,125.008-117.875c37.192,0,70.501,16.189,93.472,41.915l8.077,9.055l5.902-10.603
			c9.493-17.017,27.584-28.522,48.439-28.522c15.326,0.006,29.121,6.185,39.171,16.223c10.038,10.05,16.223,23.846,16.228,39.165
			c0,10.971-3.216,21.107-8.727,29.748l-6.84,10.706l12.472,2.411c38.93,7.524,68.395,41.782,68.378,82.921
			C494.736,357.092,457.004,394.272,410.245,394.301z"/>
	</g>
</g>
</svg>
