<svg width="134" height="117" viewBox="0 0 134 117" fill="none" xmlns="http://www.w3.org/2000/svg">
<path d="M32.7696 1.40138L32.7701 1.40045C33.177 0.685379 33.9409 0.25 34.7566 0.25H98.7837C99.5995 0.25 100.363 0.685378 100.77 1.40045L100.771 1.40138L132.784 57.0957C132.784 57.0959 132.784 57.096 132.784 57.0962C133.192 57.8137 133.192 58.684 132.784 59.4014C132.784 59.4016 132.784 59.4018 132.784 59.402L100.771 115.096L100.77 115.097C100.363 115.812 99.5995 116.247 98.7837 116.247H34.7566C33.9409 116.247 33.177 115.812 32.7701 115.097L32.7696 115.096L0.756542 59.402C0.756488 59.4019 0.756434 59.4018 0.75638 59.4017C0.348134 58.6841 0.348134 57.8136 0.75638 57.096C0.756434 57.0959 0.756488 57.0958 0.756542 57.0957L32.7696 1.40138Z" fill="#08090A" stroke="#56EAED" stroke-width="0.5"/>
</svg>
