<svg width="24" height="24" viewBox="0 0 24 24" fill="none" xmlns="http://www.w3.org/2000/svg">
<path d="M10.3635 3C8.90709 3 7.48342 3.43187 6.27248 4.24099C5.06154 5.05011 4.11773 6.20015 3.5604 7.54567C3.00307 8.89119 2.85724 10.3718 3.14137 11.8002C3.4255 13.2286 4.12681 14.5406 5.15663 15.5704C6.18645 16.6003 7.49851 17.3016 8.92691 17.5857C10.3553 17.8698 11.8359 17.724 13.1814 17.1667C14.5269 16.6093 15.677 15.6655 16.4861 14.4546C17.2952 13.2437 17.7271 11.82 17.7271 10.3636C17.7269 8.41069 16.9511 6.5378 15.5702 5.15688C14.1893 3.77597 12.3164 3.00012 10.3635 3V3Z" stroke="#56EAED" stroke-width="0.5" stroke-miterlimit="10"/>
<path d="M15.8583 15.8573L21.0009 21" stroke="#56EAED" stroke-width="0.5" stroke-miterlimit="10" stroke-linecap="round"/>
</svg>
