<svg width="25" height="18" viewBox="0 0 25 18" fill="none" xmlns="http://www.w3.org/2000/svg">
<path d="M5.61054 5.06147C5.7672 5.02776 5.9131 4.95599 6.03641 4.8529C6.15972 4.7498 6.25683 4.61842 6.3205 4.47011L6.32065 4.46977C6.75605 3.45146 7.40781 2.54993 8.22618 1.83264C9.41939 0.798061 10.8955 0.250071 12.5 0.250073L12.5011 0.250068C14.3049 0.241913 16.0426 0.963937 17.3454 2.2661C18.4656 3.38669 19.2308 4.87295 19.5823 6.61883C19.6203 6.81055 19.7107 6.98807 19.8441 7.12977C19.9777 7.27173 20.149 7.37179 20.338 7.41653L20.3394 7.41684C22.3958 7.89189 24.25 9.42241 24.25 12.0779C24.25 13.6423 23.7003 14.9004 22.6809 15.7438C21.7807 16.488 20.5352 16.8929 19.0625 16.8929H6.875C5.22684 16.8929 3.69933 16.3025 2.56954 15.2365L2.56953 15.2365C1.398 14.1312 0.75 12.5968 0.75 10.9091C0.75 9.18949 1.35415 7.72139 2.48695 6.64808L2.48703 6.648C3.29873 5.87826 4.38592 5.32673 5.61054 5.06147ZM5.61054 5.06147C5.61048 5.06149 5.61042 5.0615 5.61036 5.06151L5.55781 4.8171M5.61054 5.06147C5.61061 5.06146 5.61067 5.06145 5.61073 5.06143L5.55781 4.8171M5.55781 4.8171C5.6743 4.79205 5.78338 4.73858 5.87605 4.6611C5.96872 4.58362 6.04232 4.48435 6.09078 4.37148C6.54073 3.31915 7.21469 2.38664 8.06188 1.64422M5.55781 4.8171C4.29406 5.0908 3.16391 5.66157 2.315 6.4666L8.06188 1.64422M8.06188 1.64422C9.30125 0.569387 10.8359 7.09157e-05 12.5 7.09157e-05M8.06188 1.64422L12.5 7.09157e-05M12.5 7.09157e-05C14.3718 -0.00839262 16.1733 0.741009 17.5222 2.08935L12.5 7.09157e-05Z" stroke="#56EAED" stroke-width="0.5"/>
</svg>
