<svg width="24" height="24" viewBox="0 0 24 24" fill="none" xmlns="http://www.w3.org/2000/svg">
<path d="M2.40569 18.5486L2.4057 18.5486L2.40297 18.547C2.05277 18.3431 1.76209 18.051 1.55981 17.6998C1.35758 17.3488 1.25077 16.9509 1.25 16.5457V7.29214L11.0357 12.9997V23.7226L2.40569 18.5486ZM11.0536 13.0102C11.0533 13.01 11.0529 13.0098 11.0526 13.0096L11.0698 12.9802L11.0703 12.9792L11.0714 12.9792L11.0714 12.9792L11.0536 13.0102ZM11.0716 12.979H11.0705L11.1785 12.7937L11.0716 12.979ZM13.25 13.0398L23.0357 7.29396L23.0357 16.5454L23.0357 16.5459L13.25 13.0398ZM13.7404 0.679542L21.8684 5.40255L12.1445 11.1234L2.41781 5.40223L10.5448 0.679542C10.5449 0.679517 10.5449 0.679492 10.545 0.679467C11.0304 0.398151 11.5815 0.25 12.1426 0.25C12.7037 0.25 13.2549 0.398178 13.7404 0.679542ZM12.1626 11.1341L12.1625 11.134L12.1626 11.1341ZM10.6071 5.57239C10.6071 5.91878 10.8178 6.20167 11.0952 6.38652C11.3743 6.57254 11.7455 6.67945 12.1429 6.67945C12.5402 6.67945 12.9114 6.57254 13.1905 6.38652C13.4679 6.20167 13.6786 5.91878 13.6786 5.57239C13.6786 5.22599 13.4679 4.94311 13.1905 4.75825C12.9114 4.57223 12.5402 4.46533 12.1429 4.46533C11.7455 4.46533 11.3743 4.57223 11.0952 4.75825C10.8178 4.94311 10.6071 5.22599 10.6071 5.57239ZM2.46429 16.7141C2.46429 17.1115 2.5712 17.4826 2.75724 17.7618C2.94213 18.0391 3.22503 18.2497 3.57143 18.2497C3.91782 18.2497 4.20073 18.0391 4.38561 17.7618C4.57166 17.4826 4.67857 17.1115 4.67857 16.7141C4.67857 16.3168 4.57166 15.9457 4.38561 15.6665C4.20073 15.3892 3.91782 15.1786 3.57143 15.1786C3.22503 15.1786 2.94213 15.3892 2.75724 15.6665C2.5712 15.9457 2.46429 16.3168 2.46429 16.7141ZM7.60714 15C7.60714 15.3974 7.71406 15.7685 7.9001 16.0476C8.08498 16.325 8.36789 16.5356 8.71428 16.5356C9.06068 16.5356 9.34359 16.325 9.52847 16.0476C9.71451 15.7685 9.82143 15.3974 9.82143 15C9.82143 14.6027 9.71451 14.2315 9.52847 13.9524C9.34359 13.675 9.06068 13.4644 8.71428 13.4644C8.36789 13.4644 8.08498 13.675 7.9001 13.9524C7.71406 14.2315 7.60714 14.6027 7.60714 15ZM14.4643 19.7139C14.4643 20.1112 14.5712 20.4823 14.7572 20.7615C14.9421 21.0388 15.225 21.2494 15.5714 21.2494C15.9178 21.2494 16.2007 21.0388 16.3856 20.7615C16.5717 20.4823 16.6786 20.1112 16.6786 19.7139C16.6786 19.3165 16.5717 18.9454 16.3856 18.6662C16.2007 18.3889 15.9178 18.1783 15.5714 18.1783C15.225 18.1783 14.9421 18.3889 14.7572 18.6662C14.5712 18.9454 14.4643 19.3165 14.4643 19.7139ZM14.4643 15C14.4643 15.3974 14.5712 15.7685 14.7572 16.0476C14.9421 16.325 15.225 16.5356 15.5714 16.5356C15.9178 16.5356 16.2007 16.325 16.3856 16.0476C16.5717 15.7685 16.6786 15.3974 16.6786 15C16.6786 14.6027 16.5717 14.2315 16.3856 13.9524C16.2007 13.675 15.9178 13.4644 15.5714 13.4644C15.225 13.4644 14.9421 13.675 14.7572 13.9524C14.5712 14.2315 14.4643 14.6027 14.4643 15ZM19.6071 16.7141C19.6071 17.1115 19.7141 17.4826 19.9001 17.7618C20.085 18.0391 20.3679 18.2497 20.7143 18.2497C21.0607 18.2497 21.3436 18.0391 21.5285 17.7618C21.7145 17.4826 21.8214 17.1115 21.8214 16.7141C21.8214 16.3168 21.7145 15.9457 21.5285 15.6665C21.3436 15.3892 21.0607 15.1786 20.7143 15.1786C20.3679 15.1786 20.085 15.3892 19.9001 15.6665C19.7141 15.9457 19.6071 16.3168 19.6071 16.7141ZM19.6071 12.0003C19.6071 12.3977 19.7141 12.7688 19.9001 13.0479C20.085 13.3253 20.3679 13.5359 20.7143 13.5359C21.0607 13.5359 21.3436 13.3253 21.5285 13.0479C21.7145 12.7688 21.8214 12.3977 21.8214 12.0003C21.8214 11.603 21.7145 11.2318 21.5285 10.9527C21.3436 10.6753 21.0607 10.4647 20.7143 10.4647C20.3679 10.4647 20.085 10.6753 19.9001 10.9527C19.7141 11.2318 19.6071 11.603 19.6071 12.0003Z" stroke="#56EAED" stroke-width="0.5"/>
</svg>
