<svg width="22" height="22" viewBox="0 0 22 22" fill="none" xmlns="http://www.w3.org/2000/svg">
<path d="M21.6907 17.1486L11.219 21.4446C11.2164 21.4457 11.2136 21.4464 11.2108 21.4472C11.2085 21.4477 11.2061 21.4483 11.2039 21.4492C11.1845 21.4563 11.1649 21.4622 11.1449 21.4668M21.6907 17.1486L11.1498 21.2047L11.1497 21.2047M21.6907 17.1486C21.8701 17.0752 21.9575 16.9006 21.9575 16.7068M21.6907 17.1486L21.9575 16.7068M11.1449 21.4668L11.0897 21.223L11.089 21.2231M11.1449 21.4668L11.089 21.2231M11.1449 21.4668C11.1426 21.4673 11.1402 21.4679 11.1378 21.4684C11.132 21.4698 11.1261 21.4712 11.1203 21.4722C11.0931 21.4771 11.0651 21.4802 11.0375 21.4802C11.0097 21.4802 10.9813 21.477 10.954 21.4722L11.0765 21.2261M11.089 21.2231C11.0985 21.2209 11.1078 21.2182 11.1169 21.2148L11.1176 21.2145C11.1248 21.2119 11.1311 21.2099 11.1361 21.2084M11.089 21.2231L11.081 21.225L11.0765 21.2261M11.1361 21.2084L11.1241 21.2133C11.1322 21.21 11.1389 21.2078 11.1432 21.2066C11.1464 21.2056 11.149 21.2049 11.1497 21.2047M11.1361 21.2084C11.1379 21.2079 11.1396 21.2074 11.141 21.207L11.1473 21.2053L11.149 21.2049L11.1497 21.2047M11.1361 21.2084L21.5958 16.9173L21.5961 16.9172C21.6569 16.8923 21.7075 16.8286 21.7075 16.7068V4.29606C21.7075 4.24949 21.7201 4.21083 21.7349 4.18184C21.7311 4.17486 21.7281 4.16989 21.7255 4.16617L21.7251 4.16571L21.7199 4.15895C21.714 4.15112 21.7066 4.14267 21.6975 4.13368L21.692 4.12825L21.6897 4.12589L21.6893 4.12556C21.6824 4.11939 21.6765 4.11456 21.6712 4.11071C21.669 4.10941 21.6664 4.10785 21.6636 4.10603L21.6611 4.10462L21.6553 4.10138L21.6535 4.10031C21.6391 4.0919 21.6276 4.08649 21.6186 4.08314C21.6151 4.08184 21.6118 4.08054 21.6089 4.07931L11.1161 0.263694L11.1161 0.263683C11.066 0.245439 11.0109 0.245439 10.9607 0.263683L10.9607 0.263694L0.467952 4.07928C0.467297 4.07955 0.46663 4.07983 0.465952 4.0801L0.458514 4.08315L0.458469 4.08302C0.44935 4.08642 0.437704 4.09188 0.423043 4.10042L0.416888 4.10397L0.413479 4.10592C0.410354 4.10789 0.407553 4.10957 0.405246 4.11092C0.400349 4.11451 0.394549 4.11919 0.387467 4.12548L0.386447 4.12651L0.384364 4.1286L0.378561 4.13435C0.36978 4.14293 0.362567 4.15115 0.35667 4.15895L0.35458 4.16172L0.354561 4.1617L0.350007 4.1674C0.345207 4.17441 0.339712 4.18379 0.333403 4.19672L0.333115 4.19731C0.333009 4.19754 0.33279 4.19801 0.332423 4.19881L0.330896 4.20219L0.329791 4.2046C0.323742 4.21826 0.319948 4.22873 0.317587 4.23695C0.316265 4.24284 0.31445 4.24993 0.311958 4.25782L11.1497 21.2047M11.0765 21.2261L11.0762 21.2261C11.0762 21.2261 11.0761 21.2261 11.0761 21.2261M11.0765 21.2261L0.420977 16.9172M11.0765 21.2261L11.077 21.226M11.0765 21.2261C11.0763 21.2261 11.0762 21.2261 11.0761 21.2261M11.0761 21.2261C11.0593 21.2291 11.0466 21.2302 11.0375 21.2302C11.0283 21.2302 11.0149 21.2291 10.9971 21.2259L10.9958 21.2257C10.9958 21.2257 10.9958 21.2257 10.9958 21.2257C10.9957 21.2257 10.9948 21.2255 10.993 21.2251L10.9841 21.2231L10.9839 21.2231C10.9756 21.2212 10.9684 21.2195 10.9622 21.2178L10.9549 21.2156C10.953 21.215 10.9522 21.2147 10.9522 21.2147L10.9485 21.2134C10.9419 21.2111 10.936 21.2093 10.9315 21.208C10.9269 21.2067 10.9228 21.2057 10.9194 21.205C10.9176 21.2045 10.9159 21.2042 10.9142 21.2038M11.0761 21.2261C11.0745 21.2265 11.0749 21.2264 11.0765 21.2261C11.0766 21.2261 11.0768 21.226 11.077 21.226M10.9142 21.2038L0.421114 16.9173C0.421068 16.9172 0.421023 16.9172 0.420977 16.9172M10.9142 21.2038L10.9363 21.2128L10.8902 21.1996C10.8897 21.1995 10.8896 21.1995 10.8906 21.1997L10.8951 21.2003L10.9039 21.2018C10.9065 21.2023 10.91 21.2029 10.9142 21.2038ZM0.420977 16.9172C0.310829 16.8721 0.25 16.7747 0.25 16.7068V4.42616L0.420977 16.9172ZM11.077 21.226L11.0788 21.2257L11.077 21.226ZM21.9575 16.7068V4.29606M21.9575 16.7068V4.29606M21.9575 4.29606C21.9575 4.29346 21.9647 4.29089 21.972 4.28833M21.9575 4.29606L21.972 4.28833M21.972 4.28833C21.9792 4.28577 21.9864 4.28322 21.9864 4.28064L21.972 4.28833ZM0.354465 4.16109C0.354384 4.16121 0.354304 4.16133 0.354224 4.16144L0.354465 4.16109ZM0.396713 4.11575L0.396732 4.11574L0.396713 4.11575ZM21.6807 4.11607C21.6817 4.11661 21.6801 4.11574 21.678 4.11453L21.6807 4.11607ZM21.7278 4.16907C21.7281 4.16937 21.728 4.16925 21.7276 4.1688L21.7278 4.16907ZM10.4067 20.5232L10.7514 20.6642V20.2919V8.91259V8.74475L10.5961 8.6812L1.04934 4.77568L0.704681 4.63469V5.00707V16.3864V16.5542L0.860023 16.6178L10.4067 20.5232ZM10.9438 8.30776L11.0384 8.34649L11.1331 8.30776L20.3097 4.55371L20.9088 4.3086L20.3005 4.08737L11.1239 0.75037L11.0384 0.719302L10.953 0.750369L1.77636 4.08733L1.16799 4.30855L1.76714 4.55366L10.9438 8.30776ZM21.0975 16.6178L21.2528 16.5542V16.3864V5.00707V4.63469L20.9082 4.77568L11.3614 8.6812L11.2061 8.74475V8.91259V20.2919V20.6643L11.5507 20.5233L21.0975 16.6178ZM0.491284 4.0681C0.491529 4.06797 0.491621 4.06792 0.49131 4.06809L0.491284 4.0681Z" stroke="#56EAED" stroke-width="0.5"/>
</svg>
