<svg width="24" height="15" viewBox="0 0 24 15" fill="none" xmlns="http://www.w3.org/2000/svg">
<path d="M20.6573 5.31028C20.8372 4.89661 20.9396 4.44038 20.9396 3.96061C20.9393 2.07975 19.4149 0.555563 17.5338 0.555281C16.4438 0.555281 15.4749 1.06927 14.8522 1.8653C13.6528 0.711985 12.0224 0 10.2267 0C6.7815 0.000515625 3.94678 2.60766 3.58683 5.95795C1.54706 6.32395 0.00084375 8.10295 0 10.2465C0.00028125 12.6554 1.95211 14.6072 4.36073 14.6075L19.2305 14.5957C20.5445 14.5957 21.7391 14.0704 22.6018 13.2155C23.465 12.3615 24.0003 11.1728 24 9.85687C23.9992 7.72055 22.5943 5.91759 20.6573 5.31028ZM19.2302 13.7866L4.3605 13.7985C3.37866 13.7982 2.49333 13.4016 1.84913 12.7581C1.206 12.1141 0.809344 11.2289 0.809016 10.2465C0.808172 8.40605 2.21072 6.89212 4.00345 6.71339L4.347 6.67913L4.36697 6.3345C4.54547 3.25359 7.10058 0.808594 10.2267 0.809109C11.9701 0.809109 13.5315 1.56797 14.6082 2.77388L14.9868 3.19833L15.2635 2.70131C15.7085 1.90364 16.5565 1.36434 17.5341 1.36434C18.2525 1.36463 18.8991 1.65427 19.3702 2.1248C19.8407 2.59589 20.1307 3.24258 20.1309 3.96066C20.1309 4.47492 19.9801 4.95005 19.7218 5.35509L19.4012 5.85694L19.9858 5.96995C21.8107 6.32264 23.1918 7.92848 23.191 9.85687C23.1908 12.0425 21.4221 13.7853 19.2302 13.7866Z" fill="#56EAED"/>
</svg>
