<svg width="24" height="24" viewBox="0 0 24 24" fill="none" xmlns="http://www.w3.org/2000/svg">
<path d="M12 1.99957C17.5228 1.99957 22 6.47673 22 11.9996C22 17.5224 17.5228 21.9996 12 21.9996C10.3596 21.9996 8.77516 21.6035 7.35578 20.8578L3.06538 21.9749C2.6111 22.0932 2.1469 21.8209 2.02858 21.3666C1.99199 21.2261 1.99198 21.0786 2.02855 20.9382L3.1449 16.6498C2.3972 15.2289 2 13.6424 2 11.9996C2 6.47673 6.47715 1.99957 12 1.99957ZM13.2517 12.9996H8.75L8.64823 13.0064C8.28215 13.0561 8 13.3699 8 13.7496C8 14.1293 8.28215 14.4431 8.64823 14.4927L8.75 14.4996H13.2517L13.3535 14.4927C13.7196 14.4431 14.0017 14.1293 14.0017 13.7496C14.0017 13.3699 13.7196 13.0561 13.3535 13.0064L13.2517 12.9996ZM15.25 9.49957H8.75L8.64823 9.50642C8.28215 9.55608 8 9.86988 8 10.2496C8 10.6293 8.28215 10.9431 8.64823 10.9927L8.75 10.9996H15.25L15.3518 10.9927C15.7178 10.9431 16 10.6293 16 10.2496C16 9.86988 15.7178 9.55608 15.3518 9.50642L15.25 9.49957Z" stroke="#56EAED" stroke-width="0.5"/>
</svg>
