<svg width="22" height="22" viewBox="0 0 22 22" fill="none" xmlns="http://www.w3.org/2000/svg">
<path d="M3.40102 7.1601C2.61133 7.1601 1.96899 7.80252 1.96899 8.59212C1.96899 9.38171 2.61133 10.0241 3.40102 10.0241C4.19065 10.0241 4.83304 9.38171 4.83304 8.59212C4.83304 7.80252 4.19065 7.1601 3.40102 7.1601ZM3.40102 9.06941C3.13775 9.06941 2.92368 8.8553 2.92368 8.59207C2.92368 8.32885 3.13775 8.11473 3.40102 8.11473C3.66429 8.11473 3.87836 8.32889 3.87836 8.59207C3.87836 8.85526 3.66429 9.06941 3.40102 9.06941Z" fill="#56EAED"/>
<path d="M5.31044 10.9788C4.5208 10.9788 3.87842 11.6212 3.87842 12.4108C3.87842 13.2004 4.52076 13.8428 5.31044 13.8428C6.10012 13.8428 6.74246 13.2004 6.74246 12.4108C6.74246 11.6212 6.10008 10.9788 5.31044 10.9788ZM5.31044 12.8881C5.04717 12.8881 4.8331 12.674 4.8331 12.4107C4.8331 12.1475 5.04717 11.9334 5.31044 11.9334C5.57371 11.9334 5.78778 12.1475 5.78778 12.4107C5.78778 12.674 5.57371 12.8881 5.31044 12.8881Z" fill="#56EAED"/>
<path d="M11.0385 2.38672C10.2488 2.38672 9.60645 3.02915 9.60645 3.81874C9.60645 4.60834 10.2488 5.25076 11.0385 5.25076C11.8281 5.25076 12.4705 4.60834 12.4705 3.81874C12.4705 3.02915 11.8281 2.38672 11.0385 2.38672ZM11.0385 4.29608C10.7752 4.29608 10.5611 4.08197 10.5611 3.81874C10.5611 3.55556 10.7752 3.3414 11.0385 3.3414C11.3017 3.3414 11.5158 3.55551 11.5158 3.81874C11.5158 4.08197 11.3017 4.29608 11.0385 4.29608Z" fill="#56EAED"/>
<path d="M18.6758 6.68274C17.8862 6.68274 17.2438 7.32517 17.2438 8.11476C17.2438 8.90436 17.8861 9.54678 18.6758 9.54678C19.4655 9.54678 20.1078 8.90436 20.1078 8.11476C20.1078 7.32512 19.4655 6.68274 18.6758 6.68274ZM18.6758 8.59206C18.4125 8.59206 18.1985 8.37795 18.1985 8.11472C18.1985 7.85153 18.4125 7.63738 18.6758 7.63738C18.9391 7.63738 19.1531 7.85149 19.1531 8.11472C19.1531 8.37795 18.9391 8.59206 18.6758 8.59206Z" fill="#56EAED"/>
<path d="M13.9025 15.2748C13.1128 15.2748 12.4705 15.9173 12.4705 16.7069C12.4705 17.4965 13.1128 18.1389 13.9025 18.1389C14.6922 18.1389 15.3345 17.4965 15.3345 16.7069C15.3345 15.9173 14.6921 15.2748 13.9025 15.2748ZM13.9025 17.1842C13.6392 17.1842 13.4251 16.9701 13.4251 16.7069C13.4251 16.4436 13.6392 16.2295 13.9025 16.2295C14.1658 16.2295 14.3798 16.4437 14.3798 16.7069C14.3798 16.97 14.1658 17.1842 13.9025 17.1842Z" fill="#56EAED"/>
<path d="M7.69704 14.7975C6.9074 14.7975 6.26501 15.4399 6.26501 16.2295C6.26501 17.0191 6.90736 17.6615 7.69704 17.6615C8.48672 17.6615 9.12906 17.0191 9.12906 16.2295C9.12906 15.4399 8.48672 14.7975 7.69704 14.7975ZM7.69704 16.7068C7.43377 16.7068 7.2197 16.4927 7.2197 16.2295C7.2197 15.9663 7.43377 15.7522 7.69704 15.7522C7.96031 15.7522 8.17438 15.9663 8.17438 16.2295C8.17438 16.4927 7.96031 16.7068 7.69704 16.7068Z" fill="#56EAED"/>
<path d="M21.9958 4.18254C21.9956 4.18172 21.9993 4.18087 21.9991 4.18005C21.9925 4.15362 21.9847 4.12814 21.9737 4.10339C21.9712 4.09785 21.9699 4.09244 21.9672 4.08702C21.9555 4.06313 21.9428 4.04006 21.9272 4.0184C21.9248 4.01483 21.922 4.0117 21.9194 4.00822C21.9053 3.98957 21.8896 3.97204 21.8729 3.95554C21.8682 3.95107 21.864 3.94643 21.8593 3.94213C21.8425 3.92696 21.8249 3.91265 21.8059 3.89981C21.8028 3.8977 21.7994 3.8962 21.7962 3.89413C21.7909 3.8907 21.7852 3.88765 21.7796 3.88442C21.7558 3.87054 21.7312 3.8583 21.7058 3.84885C21.7048 3.8485 21.7039 3.84786 21.703 3.84751L11.2016 0.0287461C11.0962 -0.00958204 10.9806 -0.00958204 10.8753 0.0287461L0.373872 3.84747C0.372926 3.84781 0.372239 3.84833 0.371294 3.84872C0.34577 3.85821 0.321063 3.8705 0.297172 3.88442C0.291586 3.88769 0.286 3.8907 0.280629 3.89413C0.277493 3.89615 0.274098 3.8977 0.270961 3.89981C0.25184 3.91261 0.234266 3.92696 0.217465 3.94213C0.212782 3.94643 0.208485 3.95103 0.203844 3.95554C0.186957 3.97204 0.171317 3.98957 0.157223 4.00822C0.154516 4.0117 0.151637 4.01488 0.149188 4.0184C0.133547 4.04006 0.120399 4.06317 0.108754 4.08702C0.10609 4.09244 0.103727 4.09785 0.101192 4.10339C0.0902345 4.12814 0.0806954 4.15362 0.0740353 4.18005C0.0738204 4.18087 0.0738204 4.18172 0.0735626 4.18254C0.0673751 4.20794 0.0638946 4.23415 0.0619181 4.26062C0.0613165 4.26732 0.0310235 4.27389 0.0308086 4.2806C0.0306368 4.28584 0 4.29087 0 4.29606V16.7068C0 16.9006 0.147082 17.0752 0.326434 17.1486L10.8428 21.4447C10.8476 21.4466 10.8602 21.4474 10.8652 21.4491C10.8846 21.4563 10.908 21.4622 10.928 21.4668C10.9361 21.4686 10.9459 21.4708 10.954 21.4722C10.9813 21.477 11.0097 21.4802 11.0375 21.4802C11.0651 21.4802 11.0931 21.4771 11.1203 21.4722C11.1285 21.4708 11.1367 21.4686 11.1449 21.4668C11.1649 21.4622 11.1845 21.4563 11.2039 21.4492C11.2089 21.4473 11.2141 21.4467 11.219 21.4446L21.6907 17.1486C21.8701 17.0752 21.9575 16.9006 21.9575 16.7068V4.29606C21.9575 4.29087 21.9865 4.2858 21.9864 4.28064C21.9861 4.27394 22.0005 4.26736 22 4.26066C21.9981 4.23419 22.002 4.20798 21.9958 4.18254ZM10.5014 20.2919L0.954681 16.3864V5.00707L10.5014 8.91259V20.2919ZM11.0384 8.07638L1.8618 4.32228L11.0384 0.985318L20.215 4.32232L11.0384 8.07638ZM21.0028 16.3864L11.4561 20.2919V8.91259L21.0028 5.00707V16.3864Z" fill="#56EAED"/>
</svg>
