<svg width="18" height="18" viewBox="0 0 18 18" fill="none" xmlns="http://www.w3.org/2000/svg">
<path d="M12.4817 17.7496H8.99965V15.9641C9.00019 15.7989 8.96728 15.6354 8.9029 15.4833C8.83851 15.3313 8.74399 15.1938 8.62504 15.0793C8.32543 14.784 7.88949 14.618 7.4309 14.6246C7.02295 14.6285 6.62943 14.776 6.31957 15.0414C6.11645 15.2211 5.87465 15.532 5.87465 15.9953V17.7496H2.42231C1.84627 17.749 1.29401 17.5199 0.886692 17.1126C0.479374 16.7053 0.250271 16.153 0.24965 15.577V12.1246H2.0352C2.39301 12.1246 2.74106 11.9715 3.01528 11.6949C3.16783 11.5412 3.28848 11.3587 3.37027 11.1581C3.45205 10.9576 3.49337 10.7428 3.49184 10.5262C3.48012 9.69844 2.79887 8.99962 2.00395 8.99962H0.24965V5.50977C0.248523 5.22535 0.305174 4.94366 0.416168 4.68179C0.527161 4.41992 0.690185 4.18332 0.895353 3.98634C1.30509 3.59111 1.85303 3.3716 2.42231 3.37462H4.89262V2.80899C4.89262 2.46906 4.96033 2.13253 5.09179 1.81904C5.22325 1.50556 5.41584 1.2214 5.65831 0.983148C5.90078 0.744897 6.18827 0.557326 6.50402 0.431384C6.81976 0.305442 7.15742 0.24365 7.49731 0.249616C8.88363 0.273835 10.0114 1.43633 10.0114 2.84063V3.37462H12.4817C12.7639 3.37158 13.044 3.42494 13.3053 3.53156C13.5667 3.63818 13.8041 3.79592 14.0037 3.99552C14.2033 4.19512 14.3611 4.43257 14.4677 4.69393C14.5743 4.9553 14.6277 5.23532 14.6246 5.51758V7.9879H15.1582C16.5871 7.9879 17.7496 9.12071 17.7496 10.5129C17.7496 11.943 16.6016 13.1066 15.1903 13.1066H14.6246V15.577C14.6246 16.775 13.6633 17.7496 12.4817 17.7496Z" fill="#56EAED"/>
</svg>
