<svg width="20" height="14" viewBox="0 0 20 14" fill="none" xmlns="http://www.w3.org/2000/svg">
<path d="M18.8724 6.5859C18.0439 2.8402 16.797 0.840981 14.9474 0.294888C14.5586 0.180844 14.1553 0.123869 13.7501 0.125747C13.2146 0.125747 12.7482 0.256216 12.2548 0.394497C11.6603 0.561294 10.9849 0.750747 10.0001 0.750747C9.01536 0.750747 8.33957 0.561684 7.74387 0.394887C7.25012 0.256216 6.78411 0.125747 6.25012 0.125747C5.83115 0.124294 5.414 0.181088 5.01067 0.294497C3.17082 0.838247 1.92473 2.83668 1.08411 6.58356C0.180199 10.6156 0.625121 13.1613 2.33176 13.7519C2.5657 13.8344 2.81184 13.8769 3.05989 13.8777C4.22903 13.8777 5.16653 12.9039 5.80715 12.1066C6.53098 11.2043 7.37825 10.7465 10.0001 10.7465C12.3419 10.7465 13.3111 11.064 14.1482 12.1066C14.6743 12.7621 15.1716 13.2207 15.6677 13.5093C16.3275 13.8929 16.9868 13.9781 17.6271 13.7582C18.6357 13.414 19.2138 12.5043 19.3458 11.0535C19.4462 9.94098 19.2915 8.47965 18.8724 6.5859ZM8.12512 6.37575H6.87512V7.62575C6.87512 7.79151 6.80927 7.95048 6.69206 8.06769C6.57485 8.1849 6.41588 8.25075 6.25012 8.25075C6.08436 8.25075 5.92539 8.1849 5.80818 8.06769C5.69097 7.95048 5.62512 7.79151 5.62512 7.62575V6.37575H4.37512C4.20936 6.37575 4.05039 6.3099 3.93318 6.19269C3.81597 6.07548 3.75012 5.91651 3.75012 5.75075C3.75012 5.58499 3.81597 5.42602 3.93318 5.30881C4.05039 5.1916 4.20936 5.12575 4.37512 5.12575H5.62512V3.87575C5.62512 3.70999 5.69097 3.55102 5.80818 3.43381C5.92539 3.3166 6.08436 3.25075 6.25012 3.25075C6.41588 3.25075 6.57485 3.3166 6.69206 3.43381C6.80927 3.55102 6.87512 3.70999 6.87512 3.87575V5.12575H8.12512C8.29088 5.12575 8.44985 5.1916 8.56706 5.30881C8.68427 5.42602 8.75012 5.58499 8.75012 5.75075C8.75012 5.91651 8.68427 6.07548 8.56706 6.19269C8.44985 6.3099 8.29088 6.37575 8.12512 6.37575ZM11.4064 6.532C11.2519 6.532 11.1008 6.48618 10.9723 6.40033C10.8439 6.31449 10.7437 6.19247 10.6846 6.04972C10.6255 5.90696 10.61 5.74988 10.6401 5.59833C10.6703 5.44678 10.7447 5.30758 10.8539 5.19832C10.9632 5.08906 11.1024 5.01465 11.254 4.98451C11.4055 4.95436 11.5626 4.96984 11.7053 5.02897C11.8481 5.0881 11.9701 5.18823 12.056 5.31671C12.1418 5.44518 12.1876 5.59623 12.1876 5.75075C12.1876 5.95795 12.1053 6.15666 11.9588 6.30317C11.8123 6.44969 11.6136 6.532 11.4064 6.532ZM13.1251 8.25075C12.9705 8.25075 12.8194 8.20488 12.6909 8.11895C12.5624 8.03301 12.4622 7.91088 12.4032 7.76802C12.3441 7.62515 12.3287 7.46796 12.359 7.31636C12.3893 7.16476 12.4639 7.02556 12.5734 6.91638C12.6828 6.8072 12.8222 6.73295 12.9739 6.70302C13.1256 6.6731 13.2827 6.68885 13.4255 6.74828C13.5682 6.80771 13.69 6.90815 13.7757 7.03688C13.8613 7.16561 13.9068 7.31685 13.9064 7.47145C13.9059 7.67831 13.8233 7.87652 13.6769 8.02262C13.5304 8.16871 13.332 8.25075 13.1251 8.25075ZM13.1251 4.81325C12.9706 4.81325 12.8196 4.76743 12.6911 4.68158C12.5626 4.59574 12.4625 4.47372 12.4033 4.33097C12.3442 4.18821 12.3287 4.03113 12.3589 3.87958C12.389 3.72804 12.4634 3.58883 12.5727 3.47957C12.682 3.37031 12.8212 3.2959 12.9727 3.26576C13.1243 3.23561 13.2813 3.25109 13.4241 3.31022C13.5668 3.36935 13.6889 3.46948 13.7747 3.59796C13.8606 3.72643 13.9064 3.87748 13.9064 4.032C13.9064 4.2392 13.8241 4.43791 13.6776 4.58442C13.531 4.73094 13.3323 4.81325 13.1251 4.81325ZM14.8439 6.532C14.6894 6.532 14.5383 6.48618 14.4098 6.40033C14.2814 6.31449 14.1812 6.19247 14.1221 6.04972C14.063 5.90696 14.0475 5.74988 14.0776 5.59833C14.1078 5.44678 14.1822 5.30758 14.2914 5.19832C14.4007 5.08906 14.5399 5.01465 14.6915 4.98451C14.843 4.95436 15.0001 4.96984 15.1428 5.02897C15.2856 5.0881 15.4076 5.18823 15.4935 5.31671C15.5793 5.44518 15.6251 5.59623 15.6251 5.75075C15.6251 5.95795 15.5428 6.15666 15.3963 6.30317C15.2498 6.44969 15.0511 6.532 14.8439 6.532Z" fill="#56EAED"/>
</svg>
