<svg width="398" height="68" viewBox="0 0 398 68" fill="none" xmlns="http://www.w3.org/2000/svg">
<g filter="url(#filter0_d)">
<path d="M398 51V1H0V51H124.5L161 14.5H239L275.5 51H398Z" fill="#08090A"/>
</g>
<path d="M84 51.4999H122.5L159.5 14.5L240 14.5004L276.999 51.4999L312 51.5" stroke="#56EAED"/>
<path d="M122.5 52L159.5 15H164L127 52H122.5Z" fill="#56EAED"/>
<path d="M0 50.6172H33.234L30.052 53.7992H0V50.6172Z" fill="#56EAED"/>
<line x1="84" y1="50.5" x2="4.37115e-08" y2="50.5" stroke="#56EAED"/>
<path d="M277.5 52L240.5 15H236L273 52H277.5Z" fill="#56EAED"/>
<path d="M398.004 50.6172H364.77L367.952 53.7992H398.004V50.6172Z" fill="#56EAED"/>
<path d="M398 50.4999L312 50.5" stroke="#56EAED"/>
<defs>
<filter id="filter0_d" x="-15" y="-12" width="428" height="80" filterUnits="userSpaceOnUse" color-interpolation-filters="sRGB">
<feFlood flood-opacity="0" result="BackgroundImageFix"/>
<feColorMatrix in="SourceAlpha" type="matrix" values="0 0 0 0 0 0 0 0 0 0 0 0 0 0 0 0 0 0 127 0"/>
<feOffset dy="2"/>
<feGaussianBlur stdDeviation="7.5"/>
<feColorMatrix type="matrix" values="0 0 0 0 0.336823 0 0 0 0 0.919294 0 0 0 0 0.929167 0 0 0 0.3 0"/>
<feBlend mode="normal" in2="BackgroundImageFix" result="effect1_dropShadow"/>
<feBlend mode="normal" in="SourceGraphic" in2="effect1_dropShadow" result="shape"/>
</filter>
</defs>
</svg>
