<svg width="18" height="18" viewBox="0 0 18 18" fill="none" xmlns="http://www.w3.org/2000/svg">
<path d="M9 9C8.47383 9 7.94766 8.90664 7.5375 8.71992L1.75625 6.08359C1.4918 5.96328 0.875 5.61133 0.875 4.94688C0.875 4.28242 1.4918 3.93125 1.75703 3.80938L7.58828 1.15039C8.3918 0.783203 9.6043 0.783203 10.4082 1.15039L16.243 3.80938C16.5082 3.93008 17.125 4.28203 17.125 4.94688C17.125 5.61172 16.5082 5.9625 16.243 6.08398L10.4617 8.71992C10.0523 8.90664 9.52617 9 9 9Z" fill="#56EAED"/>
<path d="M16.2406 7.85977L15.6512 7.59375L14.1367 8.28672L10.4648 9.96641C10.0547 10.1539 9.52734 10.2473 9.00234 10.2473C8.47734 10.2473 7.95039 10.1539 7.54063 9.96641L3.86602 8.28672L2.35117 7.59375L1.75664 7.86094C1.4918 7.98164 0.875 8.33594 0.875 9C0.875 9.66406 1.4918 10.0188 1.75625 10.1395L7.5375 12.7812C7.94531 12.9687 8.47227 13.0625 9 13.0625C9.52773 13.0625 10.0523 12.9688 10.4625 12.7816L16.2387 10.1406C16.5047 10.0199 17.125 9.66758 17.125 9C17.125 8.33242 16.509 7.98164 16.2406 7.85977Z" fill="#56EAED"/>
<path d="M16.2406 11.9219L15.6512 11.6562L14.1367 12.3488L10.4648 14.0266C10.0547 14.2133 9.52734 14.307 9.00234 14.307C8.47734 14.307 7.95039 14.2137 7.54063 14.0266L3.86602 12.3469L2.35117 11.6562L1.75664 11.9234C1.4918 12.0441 0.875 12.3984 0.875 13.0625C0.875 13.7266 1.4918 14.0809 1.75625 14.2012L7.5375 16.8414C7.94531 17.0281 8.47422 17.125 9 17.125C9.52578 17.125 10.05 17.0281 10.4602 16.841L16.2383 14.2016C16.5047 14.0813 17.125 13.7289 17.125 13.0625C17.125 12.3961 16.509 12.0441 16.2406 11.9219Z" fill="#56EAED"/>
</svg>
