<svg width="330" height="40" viewBox="0 0 330 40" fill="none" xmlns="http://www.w3.org/2000/svg">
<line y1="-0.25" x2="5.86667" y2="-0.25" transform="matrix(-1 -1.74846e-07 -1.74846e-07 1 326.743 39.543)" stroke="#9c9c9c" stroke-width="0.5"/>
<line y1="-0.25" x2="5.86667" y2="-0.25" transform="matrix(4.37114e-08 -1 -1 -4.37114e-08 329 36.8668)" stroke="#9c9c9c" stroke-width="0.5"/>
<line y1="-0.25" x2="5.86667" y2="-0.25" transform="matrix(1 2.62268e-07 2.62268e-07 -1 3.25684 0)" stroke="#9c9c9c" stroke-width="0.5"/>
<line y1="-0.25" x2="5.86667" y2="-0.25" transform="matrix(-1.31134e-07 1 1 1.31134e-07 1 2.67627)" stroke="#9c9c9c" stroke-width="0.5"/>
<line y1="-0.25" x2="5.86667" y2="-0.25" transform="matrix(-1.31134e-07 1 1 1.31134e-07 328.543 3.25693)" stroke="#9c9c9c" stroke-width="0.5"/>
<line y1="-0.25" x2="5.86667" y2="-0.25" transform="matrix(-1 0 0 1 325.867 1.00009)" stroke="#9c9c9c" stroke-width="0.5"/>
<line y1="-0.25" x2="5.86667" y2="-0.25" transform="matrix(2.18557e-07 -1 -1 -2.18557e-07 0.457031 36.2861)" stroke="#9c9c9c" stroke-width="0.5"/>
<line y1="-0.25" x2="5.86667" y2="-0.25" transform="matrix(1 8.74228e-08 8.74228e-08 -1 3.1333 38.543)" stroke="#9c9c9c" stroke-width="0.5"/>
</svg>
